# xmcd CD database file
# Copyright (C) 1997 Ti Kan
# 
# Track frame offsets:
#     150
#     12702
#     24047
#     35927
#     52460
#     72695
#     86397
#     101745
#     114750
#     128032
#     140285
#     152772
# 
# Disc length: 2255 seconds
# 
# Revision: 1
# Processed by: cddbd v1.4b41PL1 Copyright (c) Steve Scherf et al.
# Submitted via: DiscPlay 4.0.4
# 
DISCID=a508cd0c
DTITLE=CHARLIE RICH - THE BEST OF CHARLIE RICH-VOL. 1
DYEAR=1900
DGENRE=
TTITLE0=BIG BOSS MAN
TTITLE1=SET ME FREE
TTITLE2=RAGGEDY ANN
TTITLE3=LIFE'S LITTLE UPS AND DOWNS
TTITLE4=JULY 12, 1939
TTITLE5=NICE N' EASY
TTITLE6=A WOMAN LEFT LONELY
TTITLE7=I TAKE IT ON HOME
TTITLE8=BEHIND CLOSED DOORS
TTITLE9=THE MOST BEAUTIFUL GIRL
TTITLE10=A VERY SPECIAL LOVE SONG
TTITLE11=A FIELD OF YELLOW DAISIES
EXTD=
EXTT0=
EXTT1=
EXTT2=
EXTT3=
EXTT4=
EXTT5=
EXTT6=
EXTT7=
EXTT8=
EXTT9=
EXTT10=
EXTT11=
PLAYORDER=
